<svg xmlns="http://www.w3.org/2000/svg" preserveAspectRatio="xMidYMid" width="138" height="24.031" viewBox="0 0 138 24.031"><defs><style>.cls-1{fill:#000;fill-rule:evenodd}</style></defs><path d="M124.575 24.019l-97.855-.508c-.022 0-.041-.005-.062-.005-.06-.003-.113-.013-.171-.018a2.63 2.63 0 0 1-.626-.131c-.047-.015-.1-.024-.144-.044L8.196 15.851l.092-8.369L25.974.202l.057-.016c.045-.018.094-.027.142-.042.159-.05.322-.084.495-.103.061-.006.121-.013.182-.015.044-.003.087-.013.133-.013l97.853.508c9.521.052 13.234 5.032 13.164 11.51-.072 6.478-3.904 12.039-13.425 11.988zM32.423 2.653l4.769 2.637 60.725.317c1.061.005 1.911.593 1.903 1.315-.008.722-.872 1.301-1.933 1.295L37.163 7.9l-7.239 3.879 7.151 3.954 60.723.315c1.061.005 1.912.593 1.904 1.315-.008.722-.872 1.301-1.933 1.295l-60.723-.314-4.828 2.586 75.117.39.204-18.277-75.116-.39zm78.953.41l-.204 18.277 3.836.02.205-18.277-3.837-.02zm7.674.04l-.205 18.277 3.84.02.204-18.277-3.839-.02zM.886 12.74a1.958 1.958 0 0 1-.348-.19 1.391 1.391 0 0 1-.408-.421.967.967 0 0 1-.143-.505.968.968 0 0 1 .14-.454 1.41 1.41 0 0 1 .423-.457c.018-.012.04-.019.059-.032.095-.06.193-.118.306-.165l3.519-1.447-.06 5.156L.886 12.74z" class="cls-1"/></svg>