<svg xmlns="http://www.w3.org/2000/svg" width="79" height="91" viewBox="0 0 79 91">
  <metadata><?xpacket begin="﻿" id="W5M0MpCehiHzreSzNTczkc9d"?>
<x:xmpmeta xmlns:x="adobe:ns:meta/" x:xmptk="Adobe XMP Core 5.6-c138 79.159824, 2016/09/14-01:09:01        ">
   <rdf:RDF xmlns:rdf="http://www.w3.org/1999/02/22-rdf-syntax-ns#">
      <rdf:Description rdf:about=""/>
   </rdf:RDF>
</x:xmpmeta>
                                                                                                    
                                                                                                    
                                                                                                    
                                                                                                    
                                                                                                    
                                                                                                    
                                                                                                    
                                                                                                    
                                                                                                    
                                                                                                    
                                                                                                    
                                                                                                    
                                                                                                    
                                                                                                    
                                                                                                    
                                                                                                    
                                                                                                    
                                                                                                    
                                                                                                    
                                                                                                    
                           
<?xpacket end="w"?></metadata>
<defs>
    <style>
      .cls-1 {
        fill: #3c3c3c;
        fill-rule: evenodd;
      }
    </style>
  </defs>
  <path class="cls-1" d="M21.756,38.114a1.569,1.569,0,0,1-1.109-.457l-3.1-3.077a1.553,1.553,0,0,1,0-2.2,1.577,1.577,0,0,1,2.219,0l1.989,1.975L26.843,29.3a1.577,1.577,0,0,1,2.219,0,1.552,1.552,0,0,1,0,2.2l-6.195,6.155A1.578,1.578,0,0,1,21.756,38.114Zm32.555-3.077H35.637a1.559,1.559,0,1,1,0-3.118H54.311A1.559,1.559,0,1,1,54.311,35.037ZM21.756,64.795a1.568,1.568,0,0,1-1.109-.457l-3.1-3.077a1.553,1.553,0,0,1,0-2.205,1.577,1.577,0,0,1,2.219,0l1.989,1.975,5.086-5.052a1.577,1.577,0,0,1,2.219,0,1.553,1.553,0,0,1,0,2.205l-6.195,6.155A1.577,1.577,0,0,1,21.756,64.795Zm32.555-3.077H35.637a1.559,1.559,0,1,1,0-3.118H54.311A1.559,1.559,0,1,1,54.311,61.717ZM21.756,78.137a1.569,1.569,0,0,1-1.109-.457l-3.1-3.077a1.552,1.552,0,0,1,0-2.2,1.577,1.577,0,0,1,2.219,0l1.989,1.975,5.086-5.052a1.577,1.577,0,0,1,2.219,0,1.551,1.551,0,0,1,0,2.2L22.867,77.68A1.581,1.581,0,0,1,21.756,78.137Zm32.555-3.079H35.637a1.559,1.559,0,1,1,0-3.118H54.311A1.559,1.559,0,1,1,54.311,75.058Zm-32.555-23.6A1.57,1.57,0,0,1,20.647,51l-3.1-3.078a1.552,1.552,0,0,1,0-2.2,1.577,1.577,0,0,1,2.219,0l1.989,1.974,5.086-5.052a1.577,1.577,0,0,1,2.219,0,1.551,1.551,0,0,1,0,2.2L22.867,51A1.574,1.574,0,0,1,21.756,51.454Zm32.555-3.076H35.637a1.559,1.559,0,1,1,0-3.118H54.311A1.559,1.559,0,1,1,54.311,48.378ZM76.888,11.4H58.422a6.136,6.136,0,0,0-6.141-5.686H46.3a5.813,5.813,0,0,0-11.623,0H28.679A6.134,6.134,0,0,0,22.548,11.4H2.081A2.085,2.085,0,0,0-.011,13.483V88.921A2.079,2.079,0,0,0,2.081,91H76.888a2.079,2.079,0,0,0,2.092-2.079V13.483A2.085,2.085,0,0,0,76.888,11.4Zm-50.177.437a1.968,1.968,0,0,1,1.967-1.965h6.539a3.63,3.63,0,0,0,3.641-3.606V5.793a1.627,1.627,0,0,1,3.254,0V6.271a3.626,3.626,0,0,0,3.63,3.606h6.539a1.969,1.969,0,0,1,1.977,1.965V16.1H26.713V11.842h0Zm48.085,75H4.173V15.562H22.526v2.619a2.079,2.079,0,0,0,2.092,2.079H56.349a2.078,2.078,0,0,0,2.092-2.079V15.562H74.794V86.843h0ZM40.485,10.14a2,2,0,1,1-2.01,2A2,2,0,0,1,40.485,10.14Z"/>
</svg>
